PathFileType	4	(X/Y/Z)	/home/nbianco/projects/addbio/data/HamnerRunning2013/Processed/subject17//results/MarkerData/run300.trc
DataRate	CameraRate	NumFrames	NumMarkers	Units	OrigDataRate	OrigDataStartFrame	OrigNumFrames
120.005	120.005	9	41	m	120.005	33	270
Frame#	Time	C7			CLAV			LACR			LASI			LCAL			LFAradius			LFAsuperior			LFAulna			LLEL			LMEL			LMT5			LPSI			LTB1			LTB2			LTB3			LTH1			LTH2			LTH3			LTOE			LUA1			LUA2			LUA3			RACR			RASI			RCAL			RFAradius			RFAsuperior			RFAulna			RLEL			RMEL			RMT5			RPSI			RTB1			RTB2			RTB3			RTH1			RTH3			RTOE			RUA1			RUA2			RUA3		
		X1	Y1	Z1	X2	Y2	Z2	X3	Y3	Z3	X4	Y4	Z4	X5	Y5	Z5	X6	Y6	Z6	X7	Y7	Z7	X8	Y8	Z8	X9	Y9	Z9	X10	Y10	Z10	X11	Y11	Z11	X12	Y12	Z12	X13	Y13	Z13	X14	Y14	Z14	X15	Y15	Z15	X16	Y16	Z16	X17	Y17	Z17	X18	Y18	Z18	X19	Y19	Z19	X20	Y20	Z20	X21	Y21	Z21	X22	Y22	Z22	X23	Y23	Z23	X24	Y24	Z24	X25	Y25	Z25	X26	Y26	Z26	X27	Y27	Z27	X28	Y28	Z28	X29	Y29	Z29	X30	Y30	Z30	X31	Y31	Z31	X32	Y32	Z32	X33	Y33	Z33	X34	Y34	Z34	X35	Y35	Z35	X36	Y36	Z36	X37	Y37	Z37	X38	Y38	Z38	X39	Y39	Z39	X40	Y40	Z40	X41	Y41	Z41

34	0.775	0.826883	1.56859	-0.282408	0.952056	1.51064	-0.274819	0.848923	1.53305	-0.466548	0.911553	1.06778	-0.40873	0.931627	0.153129	-0.352097	0.795921	1.19594	-0.464722	0.705745	1.24583	-0.541878	0.770015	1.15291	-0.511458	0.61933	1.34208	-0.554904	0.596271	1.34777	-0.471791	1.12877	0.140179	-0.411335	0.759738	1.10571	-0.331554	1.05876	0.468068	-0.344597	1.01467	0.396065	-0.419565	1.0371	0.299569	-0.348815	0.904042	0.889359	-0.459713	0.994623	0.809041	-0.438473	0.973247	0.67845	-0.414964	1.13756	0.16319	-0.322913	0.743577	1.45684	-0.519488	0.669957	1.44534	-0.494128	0.697844	1.38383	-0.540706	0.931665	1.5242	-0.0967481	0.922477	1.04366	-0.178889	0.3809	0.273121	-0.239203	0.993536	1.21755	-0.141894	0.931772	1.2326	-0.0380468	1.00131	1.15623	-0.107334	0.831402	1.25896	0.0342623	0.778717	1.23927	-0.0286917	0.464374	0.0912821	-0.20357	0.763348	1.10414	-0.235556	0.618342	0.43815	-0.23613	0.554273	0.406902	-0.173515	0.543116	0.336162	-0.236992	0.80739	0.896897	-0.113717	0.688776	0.667821	-0.167544	0.492708	0.102151	-0.294546	0.890173	1.39686	-0.0306903	0.814675	1.39561	-0.0269731	0.858998	1.3274	0.0129586
35	0.783333	0.826368	1.56989	-0.282841	0.951697	1.51226	-0.275639	0.847708	1.53471	-0.466698	0.912497	1.06831	-0.408826	0.954812	0.144028	-0.351689	0.794437	1.19923	-0.465761	0.703815	1.24932	-0.542388	0.768512	1.15634	-0.512594	0.61705	1.3452	-0.554552	0.594459	1.35079	-0.471263	1.15393	0.144925	-0.405779	0.760525	1.10797	-0.331844	1.05958	0.467225	-0.342694	1.0227	0.392436	-0.418378	1.04967	0.297838	-0.346691	0.90227	0.888038	-0.458381	0.991759	0.806033	-0.437992	0.969165	0.676035	-0.415148	1.15854	0.170023	-0.31774	0.742081	1.45945	-0.520026	0.668562	1.4482	-0.49386	0.695881	1.38655	-0.540786	0.931696	1.52636	-0.0979403	0.923109	1.04589	-0.179012	0.370844	0.286853	-0.236757	0.992032	1.22153	-0.143355	0.930875	1.23656	-0.0390283	1.00002	1.15999	-0.109274	0.831338	1.26207	0.0344817	0.778327	1.24244	-0.0283665	0.444544	0.100351	-0.202256	0.764836	1.10751	-0.235741	0.613254	0.44205	-0.235609	0.549075	0.412648	-0.172354	0.534094	0.342916	-0.235677	0.806432	0.900911	-0.113286	0.688429	0.671053	-0.166803	0.474618	0.110822	-0.292663	0.890249	1.40006	-0.0310136	0.814762	1.39864	-0.0276259	0.85892	1.33119	0.0136331
36	0.791667	0.826017	1.57059	-0.283442	0.951439	1.51315	-0.276437	0.846892	1.53552	-0.467077	0.913118	1.06797	-0.408624	0.975022	0.136868	-0.351214	0.793342	1.20148	-0.466932	0.702361	1.25174	-0.543136	0.767497	1.15872	-0.513932	0.615271	1.34725	-0.55447	0.593047	1.35271	-0.471033	1.17505	0.150242	-0.400284	0.760902	1.10926	-0.33228	1.05972	0.466018	-0.340868	1.02883	0.389462	-0.417173	1.06005	0.296641	-0.344702	0.899954	0.886669	-0.458076	0.989721	0.802551	-0.438117	0.965259	0.673074	-0.415287	1.17562	0.177029	-0.312796	0.740949	1.46101	-0.520593	0.667488	1.44996	-0.493802	0.694325	1.38824	-0.541045	0.931402	1.52766	-0.0989137	0.923334	1.04761	-0.179103	0.360274	0.300585	-0.234638	0.990256	1.22372	-0.144376	0.929359	1.23947	-0.0398951	0.998131	1.16197	-0.110669	0.830676	1.26422	0.0345685	0.777422	1.24482	-0.0282648	0.425218	0.110631	-0.200813	0.765698	1.11006	-0.236028	0.609483	0.444284	-0.235106	0.544825	0.417303	-0.17123	0.525655	0.34917	-0.234752	0.805744	0.904059	-0.113366	0.690293	0.672033	-0.165983	0.456583	0.120232	-0.29078	0.889969	1.40213	-0.0313586	0.814518	1.40067	-0.0282868	0.858323	1.3338	0.0141167
37	0.8	0.825843	1.57071	-0.284269	0.951249	1.51335	-0.277216	0.846531	1.5355	-0.467717	0.913431	1.06696	-0.408272	0.991636	0.131531	-0.350599	0.792675	1.20266	-0.468202	0.701393	1.25308	-0.544058	0.766961	1.16001	-0.515404	0.614029	1.34824	-0.554655	0.592097	1.35352	-0.471112	1.19182	0.155462	-0.395043	0.760952	1.10946	-0.332852	1.05936	0.464635	-0.339079	1.03301	0.387103	-0.415881	1.06815	0.295905	-0.342804	0.896559	0.885091	-0.458833	0.988306	0.798479	-0.438816	0.961435	0.669664	-0.415385	1.18874	0.183366	-0.30808	0.740209	1.46151	-0.521157	0.666785	1.45063	-0.493925	0.693201	1.38894	-0.5415	0.93085	1.5281	-0.0996978	0.923253	1.04887	-0.179139	0.349754	0.314539	-0.232721	0.988202	1.22404	-0.145012	0.927342	1.24101	-0.0405868	0.995649	1.16213	-0.111502	0.829404	1.26546	0.0344755	0.77596	1.2464	-0.0283861	0.406838	0.122065	-0.199136	0.765751	1.11158	-0.236477	0.606995	0.445057	-0.234234	0.541182	0.42135	-0.170041	0.518077	0.355045	-0.233875	0.805573	0.906076	-0.11392	0.694188	0.670747	-0.165074	0.438975	0.130441	-0.288823	0.889301	1.40305	-0.0317577	0.813868	1.40174	-0.029015	0.857232	1.33522	0.0143441
38	0.808333	0.825833	1.57026	-0.285368	0.951091	1.51286	-0.277971	0.846641	1.53467	-0.468612	0.913475	1.0655	-0.407899	1.00421	0.127651	-0.349492	0.79247	1.2027	-0.469532	0.700934	1.25328	-0.545078	0.766893	1.16014	-0.516939	0.613357	1.34817	-0.5551	0.591666	1.35322	-0.471503	1.2041	0.159863	-0.390251	0.760738	1.10852	-0.333522	1.05852	0.463175	-0.337301	1.03533	0.385106	-0.41441	1.07391	0.295391	-0.340873	0.892216	0.88282	-0.460161	0.987095	0.793702	-0.439826	0.957664	0.665919	-0.415454	1.19806	0.188287	-0.303655	0.73991	1.46099	-0.521824	0.666514	1.45023	-0.494235	0.692556	1.38866	-0.542166	0.930108	1.5277	-0.100342	0.922933	1.04964	-0.179155	0.340127	0.32891	-0.230951	0.985827	1.2224	-0.145358	0.924954	1.24075	-0.0410236	0.992571	1.16047	-0.111773	0.827504	1.26585	0.0341611	0.773916	1.24718	-0.0287302	0.389702	0.134511	-0.197147	0.76501	1.11193	-0.237087	0.605811	0.444622	-0.232711	0.538197	0.42521	-0.168739	0.5117	0.360582	-0.232681	0.806107	0.906615	-0.114762	0.699775	0.667366	-0.164101	0.422233	0.141431	-0.286725	0.888187	1.4029	-0.0322427	0.812739	1.4019	-0.0298455	0.855647	1.33548	0.0142311
39	0.816667	0.825961	1.56923	-0.286747	0.950945	1.51164	-0.278681	0.847195	1.53307	-0.469709	0.913274	1.06374	-0.407517	1.01253	0.124618	-0.347363	0.792751	1.20155	-0.470899	0.701014	1.2523	-0.546158	0.767289	1.15905	-0.518475	0.613283	1.347	-0.555809	0.591789	1.35181	-0.47218	1.21184	0.162706	-0.386108	0.760301	1.10645	-0.334257	1.05722	0.461569	-0.335522	1.03593	0.383037	-0.412672	1.07733	0.29467	-0.338749	0.888202	0.879472	-0.461439	0.985693	0.788309	-0.440792	0.954059	0.662011	-0.41542	1.20393	0.191304	-0.299721	0.740099	1.45947	-0.522726	0.666724	1.4488	-0.494771	0.692443	1.38741	-0.54304	0.929218	1.52648	-0.100901	0.922401	1.04976	-0.179233	0.332263	0.343799	-0.229374	0.983083	1.2188	-0.14547	0.922271	1.23843	-0.0411347	0.988871	1.15706	-0.11148	0.82496	1.26544	0.0336121	0.771296	1.24718	-0.0293115	0.373935	0.147812	-0.194803	0.763696	1.11105	-0.237783	0.605977	0.443246	-0.230515	0.536235	0.429081	-0.167339	0.506804	0.365777	-0.231016	0.807408	0.905418	-0.115644	0.70662	0.662265	-0.163132	0.406736	0.153067	-0.284423	0.8866	1.40185	-0.0328328	0.811108	1.40125	-0.030792	0.853556	1.33469	0.0137196
40	0.825	0.826194	1.5676	-0.288354	0.950802	1.50966	-0.27931	0.848141	1.53072	-0.470924	0.912831	1.06175	-0.40708	1.01666	0.12171	-0.343792	0.793542	1.1992	-0.4723	0.701661	1.25011	-0.547318	0.76815	1.15677	-0.519969	0.613828	1.34472	-0.556777	0.592474	1.34932	-0.473099	1.21519	0.163381	-0.382768	0.759653	1.10334	-0.335028	1.05546	0.459597	-0.333713	1.03496	0.380421	-0.410587	1.07844	0.293237	-0.336279	0.886352	0.875092	-0.462362	0.983912	0.782657	-0.441471	0.950817	0.658147	-0.415078	1.2067	0.19223	-0.296548	0.740786	1.45696	-0.523933	0.667428	1.44637	-0.495595	0.692906	1.38517	-0.544111	0.928191	1.52448	-0.101429	0.921671	1.04905	-0.179436	0.32681	0.359175	-0.228104	0.979958	1.21334	-0.145296	0.919259	1.23415	-0.0408902	0.984509	1.152	-0.110618	0.821765	1.26432	0.0328457	0.768115	1.24645	-0.0301503	0.359613	0.161875	-0.192103	0.762127	1.10894	-0.238455	0.607546	0.441247	-0.228005	0.535765	0.4329	-0.165924	0.503565	0.370686	-0.229062	0.809409	0.90249	-0.116368	0.714284	0.655971	-0.162238	0.392737	0.165143	-0.281869	0.884565	1.40004	-0.0335283	0.809017	1.39993	-0.0318628	0.850957	1.33298	0.0128091
41	0.833333	0.826494	1.5653	-0.290085	0.950656	1.50684	-0.279823	0.849419	1.52764	-0.472171	0.912144	1.05946	-0.406619	1.01683	0.118285	-0.338756	0.794878	1.1957	-0.473741	0.702894	1.24671	-0.548598	0.769493	1.15331	-0.521402	0.614994	1.34131	-0.557993	0.593689	1.34578	-0.474234	1.21443	0.161614	-0.380257	0.758758	1.09936	-0.335778	1.05323	0.456975	-0.331815	1.03263	0.376931	-0.408087	1.07737	0.290687	-0.333364	0.887621	0.870165	-0.463035	0.981804	0.777254	-0.441843	0.948076	0.654461	-0.414183	1.20661	0.191115	-0.294267	0.74194	1.45351	-0.525432	0.668588	1.44297	-0.49676	0.693966	1.38192	-0.545364	0.927024	1.52174	-0.10197	0.920781	1.04738	-0.179746	0.324081	0.374896	-0.227254	0.976467	1.20628	-0.144708	0.915786	1.22839	-0.0403318	0.979434	1.14544	-0.109183	0.817923	1.26253	0.0318956	0.764374	1.24508	-0.0312489	0.346916	0.176678	-0.189099	0.760572	1.10565	-0.239023	0.610558	0.438996	-0.225861	0.537142	0.43642	-0.164614	0.502064	0.375461	-0.227233	0.811953	0.898113	-0.116868	0.722398	0.64901	-0.16144	0.380407	0.177476	-0.279044	0.88214	1.39759	-0.0343076	0.806552	1.39805	-0.0330683	0.847862	1.3305	0.0115478
42	0.841667	0.826812	1.56229	-0.291812	0.950497	1.50313	-0.2802	0.850962	1.52383	-0.473393	0.911228	1.05669	-0.406321	1.01334	0.113982	-0.332685	0.79679	1.19114	-0.475226	0.704708	1.24213	-0.550025	0.771342	1.14873	-0.522781	0.616754	1.33675	-0.559444	0.595379	1.34118	-0.475597	1.20997	0.157568	-0.378401	0.757541	1.09467	-0.336393	1.05052	0.453473	-0.329773	1.02919	0.372484	-0.405165	1.07423	0.286854	-0.33001	0.891098	0.865286	-0.463712	0.979573	0.772544	-0.442048	0.945808	0.650941	-0.412615	1.20374	0.188136	-0.292705	0.743489	1.44915	-0.527155	0.670125	1.43861	-0.498284	0.695612	1.37764	-0.546791	0.925714	1.51829	-0.102539	0.91981	1.04476	-0.180034	0.324089	0.390736	-0.226885	0.972603	1.19783	-0.143581	0.911659	1.22176	-0.0395731	0.973596	1.13752	-0.107182	0.813443	1.26014	0.0307953	0.760072	1.24314	-0.0325851	0.336166	0.192189	-0.185888	0.759156	1.10127	-0.23948	0.614995	0.436787	-0.224713	0.540485	0.43934	-0.163498	0.502326	0.380275	-0.225921	0.814861	0.892653	-0.117231	0.730708	0.641719	-0.160686	0.369906	0.189973	-0.275982	0.87938	1.39451	-0.035132	0.803794	1.39567	-0.0344082	0.844292	1.32731	0.00999512
